<?xml version="1.0" standalone="no"?>
<!DOCTYPE svg PUBLIC "-//W3C//DTD SVG 20010904//EN"
 "http://www.w3.org/TR/2001/REC-SVG-20010904/DTD/svg10.dtd">
<svg version="1.0" xmlns="http://www.w3.org/2000/svg"
 width="993.000000pt" height="1024.000000pt" viewBox="0 0 993.000000 1024.000000"
 preserveAspectRatio="xMidYMid meet">

<g transform="translate(0.000000,1024.000000) scale(0.100000,-0.100000)"
fill="#000000" stroke="none">
<path d="M6915 10233 c-256 -14 -683 -85 -901 -152 -55 -17 -68 -17 -145 -5
-216 35 -389 48 -669 48 -188 1 -317 -4 -380 -12 -279 -40 -530 -115 -753
-225 l-145 -72 -118 38 c-360 116 -813 206 -1177 236 -274 23 -632 9 -867 -34
-369 -68 -714 -220 -965 -425 -99 -81 -270 -261 -338 -357 -238 -334 -372
-726 -429 -1253 -18 -172 -15 -644 6 -805 96 -745 372 -1883 643 -2655 445
-1269 910 -1875 1486 -1939 230 -26 431 38 673 214 10 7 26 -2 61 -36 67 -63
117 -101 193 -142 372 -204 1018 -236 1424 -71 33 13 62 22 65 19 2 -3 8 -117
12 -253 19 -581 52 -933 115 -1182 33 -136 126 -403 177 -512 84 -181 211
-340 356 -448 91 -67 236 -135 356 -166 83 -22 128 -28 271 -31 200 -6 289 5
544 68 367 90 606 214 815 424 122 122 204 237 289 403 197 390 300 890 336
1642 5 118 13 243 16 278 l6 63 117 -6 c192 -11 491 18 731 72 170 37 309 86
455 158 362 179 632 417 724 640 21 50 26 80 29 180 3 102 0 129 -17 179 -57
162 -184 274 -366 321 -66 17 -221 20 -305 6 -30 -6 -118 -21 -195 -35 -134
-23 -382 -52 -390 -45 -2 2 39 78 91 169 114 200 345 657 439 870 291 662 519
1378 624 1965 128 714 103 1238 -75 1586 -55 107 -185 269 -334 419 -623 624
-1468 917 -2485 863z m645 -288 c638 -74 1195 -332 1615 -749 277 -275 356
-417 400 -715 19 -128 22 -433 6 -611 -62 -669 -303 -1516 -667 -2340 -181
-410 -499 -1001 -696 -1293 -38 -55 -39 -59 -21 -72 30 -23 141 -55 227 -67
171 -23 462 0 790 63 227 44 350 11 411 -110 23 -47 17 -140 -14 -206 -35 -73
-202 -235 -331 -321 -272 -181 -527 -272 -895 -319 -235 -31 -551 -21 -701 21
-20 5 -22 1 -28 -58 -44 -407 -157 -1279 -202 -1563 -73 -464 -177 -719 -374
-915 -192 -192 -499 -330 -876 -394 -420 -71 -773 35 -1000 300 -134 156 -252
391 -294 582 -60 279 -100 908 -100 1600 0 182 -2 332 -5 332 -3 0 -35 -25
-72 -55 -173 -139 -402 -233 -650 -266 -205 -27 -540 8 -735 77 -261 93 -394
260 -334 418 48 124 178 193 506 267 277 61 382 103 457 181 46 48 193 230
193 239 0 3 -37 9 -82 13 -136 10 -313 59 -430 117 l-56 28 -114 -122 c-161
-172 -332 -365 -565 -638 -256 -298 -357 -381 -532 -433 -69 -20 -218 -21
-294 -1 -420 109 -827 741 -1203 1870 -258 776 -482 1718 -586 2465 -20 145
-17 638 5 814 68 546 234 925 536 1226 323 322 720 483 1286 520 474 31 1109
-67 1687 -261 l147 -49 61 40 c148 95 351 180 550 230 205 51 320 64 585 64
258 -1 394 -14 627 -60 l126 -25 81 25 c228 72 554 135 801 156 74 6 155 12
180 14 91 8 449 -4 580 -19z"/>
<path d="M6960 9673 c-175 -12 -510 -56 -533 -70 -4 -2 37 -26 90 -52 276
-135 545 -327 787 -561 372 -360 700 -870 858 -1334 39 -114 42 -129 46 -260
5 -159 -7 -308 -49 -591 -55 -383 -56 -507 -4 -945 70 -581 35 -909 -131
-1244 -51 -104 -53 -111 -38 -134 8 -13 20 -22 26 -20 6 2 50 69 98 148 670
1114 1130 2431 1190 3406 15 237 -3 454 -47 589 -28 89 -62 143 -152 248 -369
430 -877 702 -1476 791 -198 29 -483 42 -665 29z"/>
<path d="M4930 9560 c-292 -32 -559 -123 -775 -265 -108 -70 -144 -100 -253
-208 -363 -357 -601 -920 -691 -1636 -12 -90 -20 -165 -19 -167 2 -1 53 22
113 51 300 144 592 214 835 202 139 -8 219 -27 327 -78 176 -84 299 -228 368
-434 37 -109 99 -461 126 -715 16 -149 16 -517 0 -645 -36 -289 -98 -496 -251
-840 -65 -146 -162 -400 -199 -520 -12 -38 -24 -77 -27 -87 -4 -14 2 -16 53
-11 79 7 159 -11 252 -58 97 -48 189 -141 243 -245 72 -136 69 -105 72 -997 2
-465 8 -874 14 -972 37 -540 61 -701 130 -860 137 -318 319 -471 604 -507 210
-26 571 51 807 172 266 137 398 336 475 721 71 347 249 1769 266 2119 9 189
23 259 70 357 56 114 147 195 281 249 35 14 66 27 67 29 2 2 -40 59 -93 127
-119 153 -192 268 -265 423 -32 66 -104 203 -160 305 -251 451 -417 806 -516
1106 -84 253 -107 383 -108 594 -1 198 13 267 81 410 50 104 176 229 288 287
180 92 314 117 612 117 l221 -1 -20 56 c-137 372 -418 802 -728 1111 -452 453
-980 714 -1605 796 -145 19 -478 26 -595 14z"/>
<path d="M2165 9544 c-303 -23 -528 -75 -725 -166 -415 -191 -679 -544 -794
-1060 -49 -220 -60 -339 -60 -663 0 -279 2 -312 27 -477 132 -848 411 -1929
680 -2638 299 -787 612 -1256 883 -1325 138 -35 255 25 417 214 45 53 138 161
207 241 111 130 370 421 505 567 l50 54 -91 94 c-51 52 -120 135 -154 186
-222 333 -294 663 -241 1114 36 308 44 504 35 810 -14 448 -10 788 10 950 95
754 317 1321 684 1746 l100 117 -122 36 c-291 85 -611 151 -874 180 -137 16
-448 27 -537 20z"/>
<path d="M7485 7289 c-472 -43 -613 -303 -469 -867 79 -310 234 -658 532
-1197 58 -104 133 -248 167 -320 l62 -130 15 30 c24 46 65 182 85 281 29 145
24 444 -15 774 -53 459 -52 569 8 990 28 195 53 420 47 426 -4 4 -287 24 -317
23 -14 -1 -65 -5 -115 -10z m112 -144 c17 -8 39 -25 49 -39 16 -25 16 -29 0
-71 -33 -86 -161 -175 -251 -175 -91 0 -225 93 -225 157 0 43 30 76 98 106 98
44 249 54 329 22z"/>
<path d="M3990 7244 c-234 -30 -532 -138 -732 -267 -83 -53 -80 -42 -68 -233
21 -346 11 -742 -26 -1044 -25 -202 -28 -342 -11 -455 59 -383 279 -701 598
-865 118 -61 246 -99 359 -107 l86 -6 17 63 c36 127 142 411 229 610 192 440
238 643 238 1043 0 274 -21 467 -85 784 -58 289 -134 397 -318 455 -61 19
-216 31 -287 22z m325 -184 c120 -46 165 -126 111 -199 -54 -73 -134 -114
-226 -114 -79 0 -141 26 -205 88 -52 52 -77 96 -77 142 0 41 23 69 77 95 58
27 234 21 320 -12z"/>
<path d="M7904 3930 c-94 -31 -134 -57 -164 -104 -26 -43 -50 -152 -50 -233
l0 -61 43 -16 c86 -31 163 -40 342 -39 346 1 652 68 885 191 83 44 214 130
265 175 l40 35 -66 -13 c-346 -72 -726 -84 -947 -29 -68 16 -182 66 -237 102
l-30 20 -81 -28z"/>
<path d="M4525 3904 c-45 -23 -76 -55 -205 -215 -66 -81 -145 -170 -177 -198
-104 -93 -275 -162 -550 -221 -138 -29 -252 -61 -258 -71 -9 -14 93 -60 189
-84 141 -36 270 -48 429 -42 212 8 371 56 536 163 92 60 235 197 289 279 32
48 34 53 30 125 -7 123 -73 222 -174 260 -66 24 -71 24 -109 4z"/>
</g>
</svg>
